PathFileType	4	(X/Y/Z)	C:\Users\dbl\Desktop\LZH\BX\Trimmed_bx_n_10_1801.trc
DataRate	CameraRate	NumFrames	NumMarkers	Units	OrigDataRate	OrigDataStartFrame	OrigNumFrames
50.00	50.00	       5	43	mm	50.00	198	       394
Frame#	Time	Top.Head			R.Acromium			L.Acromium			Sternum			R.ASIS			L.ASIS			V.Sacral			R.Thigh.Upper			R.Thigh.Front			R.Thigh.Rear			R.Knee.Lat			R.Knee.Med			R.Shank.Upper			R.Shank.Front			R.Shank.Rear			R.Ankle.Lat			R.Midfoot.Lat			R.Toe.Lat			R.Toe.Tip			R.Toe.Med			R.Ankle.Med			R.Midfoot.Sup			R.Heel			L.Thigh.Upper			L.Thigh.Front			L.Thigh.Rear			L.Knee.Lat			L.Knee.Med			L.Shank.Upper			L.Shank.Front			L.Shank.Rear			L.Ankle.Lat			L.Midfoot.Lat			L.Toe.Lat			L.Toe.Tip			L.Toe.Med			L.Ankle.Med			L.Midfoot.Sup			L.Heel			origin1 front left			origin2 front right			origin 3 back right			origin 4 back leftt			
		X1	Y1	Z1	X2	Y2	Z2	X3	Y3	Z3	X4	Y4	Z4	X5	Y5	Z5	X6	Y6	Z6	X7	Y7	Z7	X8	Y8	Z8	X9	Y9	Z9	X10	Y10	Z10	X11	Y11	Z11	X12	Y12	Z12	X13	Y13	Z13	X14	Y14	Z14	X15	Y15	Z15	X16	Y16	Z16	X17	Y17	Z17	X18	Y18	Z18	X19	Y19	Z19	X20	Y20	Z20	X21	Y21	Z21	X22	Y22	Z22	X23	Y23	Z23	X24	Y24	Z24	X25	Y25	Z25	X26	Y26	Z26	X27	Y27	Z27	X28	Y28	Z28	X29	Y29	Z29	X30	Y30	Z30	X31	Y31	Z31	X32	Y32	Z32	X33	Y33	Z33	X34	Y34	Z34	X35	Y35	Z35	X36	Y36	Z36	X37	Y37	Z37	X38	Y38	Z38	X39	Y39	Z39	X40	Y40	Z40	X41	Y41	Z41	X42	Y42	Z42	X43	Y43	Z43	

198	3.940	-556.48853	259.38043	1831.30286	-625.85223	73.28181	1534.11072	-643.89935	430.03436	1533.88513	-537.92773	256.64767	1350.13391	-535.16083	132.05400	1029.52124	-519.61493	360.51581	1037.21985	-728.68707	254.47687	1045.49268	-590.09222	81.14314	864.63257	-519.03748	150.46925	848.34552	-606.91132	92.83110	737.80078	-653.96057	117.29327	603.29553	-633.83679	225.07393	562.74017	-683.74506	117.39155	541.45850	-604.04449	162.46008	534.84546	-722.41547	118.45828	475.08698	-692.02051	142.29056	213.89076	-615.14429	85.16408	165.22438	-566.56281	66.10427	162.97156	-489.59085	111.27016	158.87952	-537.62842	161.08365	164.71619	-645.77625	221.20326	219.83466	-602.22473	197.78070	170.57172	-729.88586	207.92902	170.75674	-602.33936	440.25150	874.52283	-517.42035	369.92810	842.81952	-626.44574	428.35236	754.49255	-657.09772	408.56372	628.09717	-616.77148	306.03146	574.90295	-662.39154	407.84076	562.81042	-603.61554	360.38965	545.24585	-712.50067	410.98172	509.67065	-682.49854	407.00259	214.65131	-588.77930	458.60260	164.90140	-550.08966	466.54865	161.26532	-489.25970	419.68607	167.39207	-528.18176	377.12982	176.43727	-647.64948	316.96707	207.65543	-599.08826	337.75064	168.41000	-737.85583	337.75516	163.90640	-443.50601	448.49365	147.06790	-450.52490	75.09092	144.15659	-806.35492	82.75764	142.31743	-799.47650	456.98193	145.30865	
199	3.960	-557.10120	259.46930	1831.43042	-626.23517	73.38411	1534.08508	-643.97339	430.10379	1533.88110	-538.10168	256.59238	1350.14661	-535.24500	131.97691	1029.51233	-519.55768	360.42847	1037.23364	-728.71881	254.52647	1045.45764	-590.29175	81.08549	864.64203	-519.11841	150.46213	848.38879	-607.04816	92.76891	737.85815	-654.09344	117.28341	603.26154	-633.79468	224.98811	562.79614	-683.75995	117.39107	541.45721	-604.08569	162.45892	534.88525	-722.31573	118.40117	475.18930	-692.01819	142.26540	213.89914	-615.16522	85.14014	165.24605	-566.55896	66.05849	162.99655	-489.63174	111.26084	158.88342	-537.63110	161.05421	164.69441	-645.76672	221.18126	219.84898	-602.23834	197.77481	170.58731	-729.86835	207.90898	170.75859	-602.21936	440.16891	874.44763	-517.36237	369.84869	842.80511	-626.36542	428.32663	754.49707	-657.09790	408.57272	628.11652	-616.73517	306.01736	574.92120	-662.37317	407.82755	562.81195	-603.60931	360.37015	545.24268	-712.51392	410.98105	509.66708	-682.50055	407.02008	214.65227	-588.77100	458.58704	164.89705	-550.06500	466.55811	161.27054	-489.24277	419.64981	167.36217	-528.20538	377.08661	176.42191	-647.66418	316.93250	207.71764	-599.11548	337.70703	168.42009	-737.84332	337.76971	163.90292	-443.50778	448.49954	147.08502	-450.52924	75.08243	144.15390	-806.35663	82.75345	142.32108	-799.47083	457.00143	145.24229	
200	3.980	-557.75006	259.52655	1831.56226	-626.53381	73.46482	1534.04224	-644.06042	430.16901	1533.87732	-538.24603	256.49850	1350.16077	-535.31842	131.89865	1029.49890	-519.48328	360.31796	1037.21448	-728.73871	254.56508	1045.42261	-590.46106	80.99889	864.68372	-519.20972	150.45369	848.40985	-607.17377	92.69272	737.91907	-654.20050	117.33035	603.25708	-633.74908	224.94664	562.85547	-683.75659	117.39249	541.45111	-604.11182	162.46222	534.91431	-722.24652	118.32506	475.28207	-692.00555	142.24480	213.91685	-615.19971	85.10803	165.26735	-566.56903	66.04982	163.05150	-489.66553	111.26820	158.88637	-537.62915	161.02530	164.67189	-645.75208	221.15541	219.85048	-602.22693	197.78589	170.57903	-729.85486	207.88226	170.76030	-602.11993	440.09637	874.38239	-517.31439	369.77209	842.76288	-626.30219	428.32269	754.51373	-657.10596	408.58615	628.13696	-616.71136	305.98642	574.93402	-662.35400	407.79456	562.81696	-603.62579	360.33545	545.22546	-712.53711	410.96957	509.65161	-682.50116	407.02567	214.65253	-588.77863	458.56885	164.89449	-550.05243	466.55719	161.27721	-489.22632	419.60416	167.32428	-528.21893	377.05536	176.43204	-647.67340	316.89865	207.78867	-599.13892	337.69064	168.41333	-737.83502	337.76065	163.90453	-443.52515	448.51114	147.07295	-450.52737	75.06982	144.16353	-806.36548	82.75719	142.31252	-799.45227	456.98785	145.19987	
201	4.000	-558.43170	259.55399	1831.67615	-626.76123	73.51372	1533.99011	-644.13733	430.22812	1533.85461	-538.37299	256.38138	1350.17334	-535.38940	131.81183	1029.48242	-519.39178	360.18344	1037.15942	-728.75110	254.60594	1045.38489	-590.58038	80.93230	864.74365	-519.30731	150.44501	848.40833	-607.28467	92.62897	737.99274	-654.26172	117.39441	603.27319	-633.70062	224.94310	562.91779	-683.75323	117.39088	541.45148	-604.13116	162.47916	534.93207	-722.24902	118.26869	475.33514	-692.00519	142.24852	213.91574	-615.23792	85.07819	165.28204	-566.58240	66.07498	163.09706	-489.67374	111.28427	158.88487	-537.63007	161.01141	164.65685	-645.77740	221.11557	219.82153	-602.20325	197.79506	170.56653	-729.86737	207.84961	170.76285	-602.03125	440.04739	874.31940	-517.27411	369.68491	842.70190	-626.24829	428.33182	754.53162	-657.11359	408.58963	628.14398	-616.73419	305.96371	574.93079	-662.34656	407.78033	562.83392	-603.64423	360.29431	545.19751	-712.55963	410.95584	509.63025	-682.50098	407.02533	214.65198	-588.78302	458.55310	164.89377	-550.05731	466.54590	161.29053	-489.21817	419.58041	167.29559	-528.22321	377.03488	176.47121	-647.66919	316.88452	207.82487	-599.14276	337.70911	168.39792	-737.82825	337.73242	163.90106	-443.55298	448.52029	147.03517	-450.51947	75.05957	144.18565	-806.37512	82.76511	142.29427	-799.43365	456.95459	145.19417	
202	4.020	-559.14783	259.54993	1831.75598	-626.95648	73.52290	1533.93628	-644.17609	430.28760	1533.81262	-538.48981	256.27805	1350.17383	-535.46057	131.71478	1029.47021	-519.29138	360.03198	1037.08545	-728.75098	254.65399	1045.35339	-590.66321	80.91006	864.79297	-519.39508	150.42679	848.39642	-607.36682	92.59546	738.06030	-654.28809	117.43323	603.29083	-633.64978	224.97188	562.98260	-683.76422	117.38061	541.47040	-604.15039	162.50644	534.94592	-722.31049	118.24736	475.35443	-692.02777	142.28513	213.87856	-615.25671	85.07032	165.27908	-566.59882	66.11338	163.10126	-489.65677	111.29919	158.88077	-537.63794	161.01408	164.64989	-645.88184	221.04546	219.74014	-602.19000	197.78384	170.57437	-729.90247	207.81766	170.75005	-601.95203	440.01868	874.26245	-517.24121	369.58588	842.63306	-626.20026	428.35184	754.54944	-657.11542	408.57034	628.13116	-616.78717	305.95425	574.90759	-662.35168	407.78372	562.84808	-603.64319	360.26746	545.17230	-712.57098	410.94992	509.61511	-682.49969	407.01874	214.65022	-588.76282	458.54605	164.89964	-550.06274	466.52185	161.30418	-489.21246	419.58929	167.29192	-528.22443	377.02252	176.51297	-647.65613	316.88275	207.82132	-599.12933	337.73938	168.38657	-737.82159	337.70612	163.87927	-443.58035	448.51559	147.00125	-450.51212	75.05841	144.20360	-806.38055	82.77000	142.27641	-799.41815	456.92984	145.18280	
